<svg width="138" height="16" viewBox="0 0 138 16" fill="none" xmlns="http://www.w3.org/2000/svg">
<path d="M10.7727 4H9.36364C9.2803 3.5947 9.13447 3.23864 8.92614 2.93182C8.72159 2.625 8.47159 2.36742 8.17614 2.15909C7.88447 1.94697 7.56061 1.78788 7.20455 1.68182C6.84849 1.57576 6.47727 1.52273 6.09091 1.52273C5.38636 1.52273 4.74811 1.70076 4.17614 2.05682C3.60795 2.41288 3.1553 2.9375 2.81818 3.63068C2.48485 4.32386 2.31818 5.17424 2.31818 6.18182C2.31818 7.18939 2.48485 8.03977 2.81818 8.73295C3.1553 9.42614 3.60795 9.95076 4.17614 10.3068C4.74811 10.6629 5.38636 10.8409 6.09091 10.8409C6.47727 10.8409 6.84849 10.7879 7.20455 10.6818C7.56061 10.5758 7.88447 10.4186 8.17614 10.2102C8.47159 9.99811 8.72159 9.73864 8.92614 9.43182C9.13447 9.12121 9.2803 8.76515 9.36364 8.36364H10.7727C10.6667 8.95833 10.4735 9.49053 10.1932 9.96023C9.91288 10.4299 9.56439 10.8295 9.14773 11.1591C8.73106 11.4848 8.26326 11.733 7.74432 11.9034C7.22917 12.0739 6.67803 12.1591 6.09091 12.1591C5.09849 12.1591 4.21591 11.9167 3.44318 11.4318C2.67045 10.947 2.0625 10.2576 1.61932 9.36364C1.17614 8.4697 0.954545 7.40909 0.954545 6.18182C0.954545 4.95455 1.17614 3.89394 1.61932 3C2.0625 2.10606 2.67045 1.41667 3.44318 0.931818C4.21591 0.446969 5.09849 0.204545 6.09091 0.204545C6.67803 0.204545 7.22917 0.289772 7.74432 0.460227C8.26326 0.630682 8.73106 0.880682 9.14773 1.21023C9.56439 1.53598 9.91288 1.93371 10.1932 2.40341C10.4735 2.86932 10.6667 3.40151 10.7727 4ZM12.8679 12V3.27273H14.2088V12H12.8679ZM13.5497 1.81818C13.2884 1.81818 13.063 1.72917 12.8736 1.55114C12.688 1.37311 12.5952 1.15909 12.5952 0.909091C12.5952 0.659091 12.688 0.445076 12.8736 0.267045C13.063 0.089015 13.2884 0 13.5497 0C13.8111 0 14.0346 0.089015 14.2202 0.267045C14.4096 0.445076 14.5043 0.659091 14.5043 0.909091C14.5043 1.15909 14.4096 1.37311 14.2202 1.55114C14.0346 1.72917 13.8111 1.81818 13.5497 1.81818ZM20.4602 3.27273V4.40909H15.9375V3.27273H20.4602ZM17.2557 1.18182H18.5966V9.5C18.5966 9.87879 18.6515 10.1629 18.7614 10.3523C18.875 10.5379 19.0189 10.6629 19.1932 10.7273C19.3712 10.7879 19.5587 10.8182 19.7557 10.8182C19.9034 10.8182 20.0246 10.8106 20.1193 10.7955C20.214 10.7765 20.2898 10.7614 20.3466 10.75L20.6193 11.9545C20.5284 11.9886 20.4015 12.0227 20.2386 12.0568C20.0758 12.0947 19.8693 12.1136 19.6193 12.1136C19.2405 12.1136 18.8693 12.0322 18.5057 11.8693C18.1458 11.7064 17.8466 11.4583 17.608 11.125C17.3731 10.7917 17.2557 10.3712 17.2557 9.86364V1.18182ZM23.3409 15.2727C23.1136 15.2727 22.911 15.2538 22.733 15.2159C22.5549 15.1818 22.4318 15.1477 22.3636 15.1136L22.7045 13.9318C23.0303 14.0152 23.3182 14.0455 23.5682 14.0227C23.8182 14 24.0398 13.8883 24.233 13.6875C24.4299 13.4905 24.6098 13.1705 24.7727 12.7273L25.0227 12.0455L21.7955 3.27273H23.25L25.6591 10.2273H25.75L28.1591 3.27273H29.6136L25.9091 13.2727C25.7424 13.7235 25.536 14.0966 25.2898 14.392C25.0436 14.6913 24.7576 14.9129 24.4318 15.0568C24.1098 15.2008 23.7462 15.2727 23.3409 15.2727ZM39.429 12.1818C38.6411 12.1818 37.9498 11.9943 37.3551 11.6193C36.7642 11.2443 36.3021 10.7197 35.9688 10.0455C35.6392 9.37121 35.4744 8.58333 35.4744 7.68182C35.4744 6.77273 35.6392 5.97917 35.9688 5.30114C36.3021 4.62311 36.7642 4.09659 37.3551 3.72159C37.9498 3.34659 38.6411 3.15909 39.429 3.15909C40.2169 3.15909 40.9063 3.34659 41.4972 3.72159C42.0919 4.09659 42.554 4.62311 42.8835 5.30114C43.2169 5.97917 43.3835 6.77273 43.3835 7.68182C43.3835 8.58333 43.2169 9.37121 42.8835 10.0455C42.554 10.7197 42.0919 11.2443 41.4972 11.6193C40.9063 11.9943 40.2169 12.1818 39.429 12.1818ZM39.429 10.9773C40.0275 10.9773 40.5199 10.8239 40.9062 10.517C41.2926 10.2102 41.5786 9.80682 41.7642 9.30682C41.9498 8.80682 42.0426 8.26515 42.0426 7.68182C42.0426 7.09848 41.9498 6.55492 41.7642 6.05114C41.5786 5.54735 41.2926 5.14015 40.9062 4.82955C40.5199 4.51894 40.0275 4.36364 39.429 4.36364C38.8305 4.36364 38.3381 4.51894 37.9517 4.82955C37.5653 5.14015 37.2794 5.54735 37.0938 6.05114C36.9081 6.55492 36.8153 7.09848 36.8153 7.68182C36.8153 8.26515 36.9081 8.80682 37.0938 9.30682C37.2794 9.80682 37.5653 10.2102 37.9517 10.517C38.3381 10.8239 38.8305 10.9773 39.429 10.9773ZM45.4304 12V3.27273H46.7259V4.59091H46.8168C46.9759 4.15909 47.2637 3.80871 47.6804 3.53977C48.0971 3.27083 48.5668 3.13636 49.0895 3.13636C49.188 3.13636 49.3111 3.13826 49.4588 3.14205C49.6065 3.14583 49.7183 3.15152 49.794 3.15909V4.52273C49.7486 4.51136 49.6444 4.49432 49.4815 4.47159C49.3224 4.44508 49.1539 4.43182 48.9759 4.43182C48.5516 4.43182 48.1728 4.52083 47.8395 4.69886C47.5099 4.87311 47.2486 5.11553 47.0554 5.42614C46.866 5.73295 46.7713 6.08333 46.7713 6.47727V12H45.4304ZM59.179 12.1818C58.4517 12.1818 57.8097 11.9981 57.2528 11.6307C56.696 11.2595 56.2604 10.7367 55.946 10.0625C55.6316 9.38447 55.4744 8.58333 55.4744 7.65909C55.4744 6.74242 55.6316 5.94697 55.946 5.27273C56.2604 4.59848 56.6979 4.07765 57.2585 3.71023C57.8191 3.3428 58.4669 3.15909 59.2017 3.15909C59.7699 3.15909 60.2188 3.25379 60.5483 3.44318C60.8816 3.62879 61.1354 3.84091 61.3097 4.07955C61.4877 4.31439 61.6259 4.50758 61.7244 4.65909H61.8381V0.363636H63.179V12H61.8835V10.6591H61.7244C61.6259 10.8182 61.4858 11.0189 61.304 11.2614C61.1222 11.5 60.8627 11.714 60.5256 11.9034C60.1884 12.089 59.7396 12.1818 59.179 12.1818ZM59.3608 10.9773C59.8987 10.9773 60.3532 10.8371 60.7244 10.5568C61.0956 10.2727 61.3778 9.88068 61.571 9.38068C61.7642 8.87689 61.8608 8.29545 61.8608 7.63636C61.8608 6.98485 61.7661 6.41477 61.5767 5.92614C61.3873 5.43371 61.107 5.05114 60.7358 4.77841C60.3646 4.50189 59.9063 4.36364 59.3608 4.36364C58.7926 4.36364 58.3191 4.50947 57.9403 4.80114C57.5653 5.08902 57.2831 5.48106 57.0938 5.97727C56.9081 6.4697 56.8153 7.02273 56.8153 7.63636C56.8153 8.25758 56.91 8.82197 57.0994 9.32955C57.2926 9.83333 57.5767 10.2348 57.9517 10.5341C58.3305 10.8295 58.8002 10.9773 59.3608 10.9773ZM69.4801 12.1818C68.6392 12.1818 67.9138 11.9962 67.304 11.625C66.6979 11.25 66.2301 10.7273 65.9006 10.0568C65.5748 9.38258 65.4119 8.59848 65.4119 7.70455C65.4119 6.81061 65.5748 6.02273 65.9006 5.34091C66.2301 4.6553 66.6884 4.12121 67.2756 3.73864C67.8665 3.35227 68.5559 3.15909 69.3438 3.15909C69.7983 3.15909 70.2472 3.23485 70.6903 3.38636C71.1335 3.53788 71.5369 3.78409 71.9006 4.125C72.2642 4.46212 72.554 4.90909 72.7699 5.46591C72.9858 6.02273 73.0938 6.70833 73.0938 7.52273V8.09091H66.3665V6.93182H71.7301C71.7301 6.43939 71.6316 6 71.4347 5.61364C71.2415 5.22727 70.965 4.92235 70.6051 4.69886C70.2491 4.47538 69.8286 4.36364 69.3438 4.36364C68.8097 4.36364 68.3475 4.49621 67.9574 4.76136C67.571 5.02273 67.2737 5.36364 67.0653 5.78409C66.857 6.20455 66.7528 6.6553 66.7528 7.13636V7.90909C66.7528 8.56818 66.8665 9.12689 67.0938 9.58523C67.3248 10.0398 67.6449 10.3864 68.054 10.625C68.4631 10.8598 68.9384 10.9773 69.4801 10.9773C69.8324 10.9773 70.1506 10.928 70.4347 10.8295C70.7225 10.7273 70.9706 10.5758 71.179 10.375C71.3873 10.1705 71.5483 9.91667 71.6619 9.61364L72.9574 9.97727C72.821 10.4167 72.5919 10.803 72.2699 11.1364C71.9479 11.4659 71.5502 11.7235 71.0767 11.9091C70.6032 12.0909 70.071 12.1818 69.4801 12.1818ZM81.3153 5.22727L80.1108 5.56818C80.035 5.36742 79.9233 5.17235 79.7756 4.98295C79.6316 4.78977 79.4347 4.63068 79.1847 4.50568C78.9347 4.38068 78.6146 4.31818 78.2244 4.31818C77.6903 4.31818 77.2453 4.44129 76.8892 4.6875C76.5369 4.92992 76.3608 5.23864 76.3608 5.61364C76.3608 5.94697 76.482 6.21023 76.7244 6.40341C76.9669 6.59659 77.3456 6.75758 77.8608 6.88636L79.1562 7.20455C79.9366 7.39394 80.518 7.68371 80.9006 8.07386C81.2831 8.46023 81.4744 8.95833 81.4744 9.56818C81.4744 10.0682 81.3305 10.5152 81.0426 10.9091C80.7585 11.303 80.3608 11.6136 79.8494 11.8409C79.3381 12.0682 78.7434 12.1818 78.0653 12.1818C77.1752 12.1818 76.4384 11.9886 75.8551 11.6023C75.2718 11.2159 74.9025 10.6515 74.7472 9.90909L76.0199 9.59091C76.1411 10.0606 76.3703 10.4129 76.7074 10.6477C77.0483 10.8826 77.4934 11 78.0426 11C78.6676 11 79.1638 10.8674 79.5312 10.6023C79.9025 10.3333 80.0881 10.0114 80.0881 9.63636C80.0881 9.33333 79.982 9.07955 79.7699 8.875C79.5578 8.66667 79.232 8.51136 78.7926 8.40909L77.3381 8.06818C76.5388 7.87879 75.9517 7.58523 75.5767 7.1875C75.2055 6.78598 75.0199 6.28409 75.0199 5.68182C75.0199 5.18939 75.1581 4.75379 75.4347 4.375C75.715 3.99621 76.0956 3.69886 76.5767 3.48295C77.0616 3.26705 77.6108 3.15909 78.2244 3.15909C79.0881 3.15909 79.7661 3.34848 80.2585 3.72727C80.7547 4.10606 81.107 4.60606 81.3153 5.22727ZM87.2884 3.27273V4.40909H82.7656V3.27273H87.2884ZM84.0838 1.18182H85.4247V9.5C85.4247 9.87879 85.4796 10.1629 85.5895 10.3523C85.7031 10.5379 85.8471 10.6629 86.0213 10.7273C86.1993 10.7879 86.3868 10.8182 86.5838 10.8182C86.7315 10.8182 86.8527 10.8106 86.9474 10.7955C87.0421 10.7765 87.1179 10.7614 87.1747 10.75L87.4474 11.9545C87.3565 11.9886 87.2296 12.0227 87.0668 12.0568C86.9039 12.0947 86.6974 12.1136 86.4474 12.1136C86.0687 12.1136 85.6974 12.0322 85.3338 11.8693C84.974 11.7064 84.6747 11.4583 84.4361 11.125C84.2012 10.7917 84.0838 10.3712 84.0838 9.86364V1.18182ZM89.3054 12V3.27273H90.6463V12H89.3054ZM89.9872 1.81818C89.7259 1.81818 89.5005 1.72917 89.3111 1.55114C89.1255 1.37311 89.0327 1.15909 89.0327 0.909091C89.0327 0.659091 89.1255 0.445076 89.3111 0.267045C89.5005 0.089015 89.7259 0 89.9872 0C90.2486 0 90.4721 0.089015 90.6577 0.267045C90.8471 0.445076 90.9418 0.659091 90.9418 0.909091C90.9418 1.15909 90.8471 1.37311 90.6577 1.55114C90.4721 1.72917 90.2486 1.81818 89.9872 1.81818ZM94.4432 6.75V12H93.1023V3.27273H94.3977V4.63636H94.5114C94.7159 4.19318 95.0265 3.83712 95.4432 3.56818C95.8598 3.29545 96.3977 3.15909 97.0568 3.15909C97.6477 3.15909 98.1648 3.2803 98.608 3.52273C99.0511 3.76136 99.3958 4.125 99.642 4.61364C99.8883 5.09848 100.011 5.71212 100.011 6.45455V12H98.6705V6.54545C98.6705 5.85985 98.4924 5.32576 98.1364 4.94318C97.7803 4.55682 97.2917 4.36364 96.6705 4.36364C96.2424 4.36364 95.8598 4.45644 95.5227 4.64205C95.1894 4.82765 94.9261 5.09848 94.733 5.45455C94.5398 5.81061 94.4432 6.24242 94.4432 6.75ZM105.03 12.2045C104.477 12.2045 103.975 12.1004 103.524 11.892C103.073 11.6799 102.715 11.375 102.45 10.9773C102.185 10.5758 102.053 10.0909 102.053 9.52273C102.053 9.02273 102.151 8.61742 102.348 8.30682C102.545 7.99242 102.808 7.74621 103.138 7.56818C103.467 7.39015 103.831 7.25758 104.229 7.17045C104.63 7.07955 105.034 7.00758 105.439 6.95455C105.969 6.88636 106.399 6.83523 106.729 6.80114C107.062 6.76326 107.304 6.70076 107.456 6.61364C107.611 6.52652 107.689 6.375 107.689 6.15909V6.11364C107.689 5.55303 107.536 5.11742 107.229 4.80682C106.926 4.49621 106.465 4.34091 105.848 4.34091C105.208 4.34091 104.706 4.48106 104.342 4.76136C103.979 5.04167 103.723 5.34091 103.575 5.65909L102.303 5.20455C102.53 4.67424 102.833 4.26136 103.212 3.96591C103.594 3.66667 104.011 3.45833 104.462 3.34091C104.916 3.2197 105.363 3.15909 105.803 3.15909C106.083 3.15909 106.405 3.19318 106.768 3.26136C107.136 3.32576 107.49 3.46023 107.831 3.66477C108.176 3.86932 108.462 4.17803 108.689 4.59091C108.916 5.00379 109.03 5.55682 109.03 6.25V12H107.689V10.8182H107.621C107.53 11.0076 107.378 11.2102 107.166 11.4261C106.954 11.642 106.672 11.8258 106.32 11.9773C105.967 12.1288 105.537 12.2045 105.03 12.2045ZM105.234 11C105.765 11 106.212 10.8958 106.575 10.6875C106.943 10.4792 107.219 10.2102 107.405 9.88068C107.594 9.55114 107.689 9.20455 107.689 8.84091V7.61364C107.632 7.68182 107.507 7.74432 107.314 7.80114C107.125 7.85417 106.905 7.90151 106.655 7.94318C106.409 7.98106 106.168 8.01515 105.933 8.04545C105.702 8.07197 105.515 8.0947 105.371 8.11364C105.022 8.15909 104.696 8.23295 104.393 8.33523C104.094 8.43371 103.852 8.58333 103.666 8.78409C103.484 8.98106 103.393 9.25 103.393 9.59091C103.393 10.0568 103.566 10.4091 103.911 10.6477C104.259 10.8826 104.7 11 105.234 11ZM115.273 3.27273V4.40909H110.75V3.27273H115.273ZM112.068 1.18182H113.409V9.5C113.409 9.87879 113.464 10.1629 113.574 10.3523C113.688 10.5379 113.831 10.6629 114.006 10.7273C114.184 10.7879 114.371 10.8182 114.568 10.8182C114.716 10.8182 114.837 10.8106 114.932 10.7955C115.027 10.7765 115.102 10.7614 115.159 10.75L115.432 11.9545C115.341 11.9886 115.214 12.0227 115.051 12.0568C114.888 12.0947 114.682 12.1136 114.432 12.1136C114.053 12.1136 113.682 12.0322 113.318 11.8693C112.958 11.7064 112.659 11.4583 112.42 11.125C112.186 10.7917 112.068 10.3712 112.068 9.86364V1.18182ZM117.29 12V3.27273H118.631V12H117.29ZM117.972 1.81818C117.71 1.81818 117.485 1.72917 117.295 1.55114C117.11 1.37311 117.017 1.15909 117.017 0.909091C117.017 0.659091 117.11 0.445076 117.295 0.267045C117.485 0.089015 117.71 0 117.972 0C118.233 0 118.456 0.089015 118.642 0.267045C118.831 0.445076 118.926 0.659091 118.926 0.909091C118.926 1.15909 118.831 1.37311 118.642 1.55114C118.456 1.72917 118.233 1.81818 117.972 1.81818ZM124.632 12.1818C123.844 12.1818 123.153 11.9943 122.558 11.6193C121.967 11.2443 121.505 10.7197 121.172 10.0455C120.842 9.37121 120.678 8.58333 120.678 7.68182C120.678 6.77273 120.842 5.97917 121.172 5.30114C121.505 4.62311 121.967 4.09659 122.558 3.72159C123.153 3.34659 123.844 3.15909 124.632 3.15909C125.42 3.15909 126.109 3.34659 126.7 3.72159C127.295 4.09659 127.757 4.62311 128.087 5.30114C128.42 5.97917 128.587 6.77273 128.587 7.68182C128.587 8.58333 128.42 9.37121 128.087 10.0455C127.757 10.7197 127.295 11.2443 126.7 11.6193C126.109 11.9943 125.42 12.1818 124.632 12.1818ZM124.632 10.9773C125.231 10.9773 125.723 10.8239 126.109 10.517C126.496 10.2102 126.782 9.80682 126.967 9.30682C127.153 8.80682 127.246 8.26515 127.246 7.68182C127.246 7.09848 127.153 6.55492 126.967 6.05114C126.782 5.54735 126.496 5.14015 126.109 4.82955C125.723 4.51894 125.231 4.36364 124.632 4.36364C124.034 4.36364 123.541 4.51894 123.155 4.82955C122.768 5.14015 122.482 5.54735 122.297 6.05114C122.111 6.55492 122.018 7.09848 122.018 7.68182C122.018 8.26515 122.111 8.80682 122.297 9.30682C122.482 9.80682 122.768 10.2102 123.155 10.517C123.541 10.8239 124.034 10.9773 124.632 10.9773ZM131.974 6.75V12H130.634V3.27273H131.929V4.63636H132.043C132.247 4.19318 132.558 3.83712 132.974 3.56818C133.391 3.29545 133.929 3.15909 134.588 3.15909C135.179 3.15909 135.696 3.2803 136.139 3.52273C136.582 3.76136 136.927 4.125 137.173 4.61364C137.42 5.09848 137.543 5.71212 137.543 6.45455V12H136.202V6.54545C136.202 5.85985 136.024 5.32576 135.668 4.94318C135.312 4.55682 134.823 4.36364 134.202 4.36364C133.774 4.36364 133.391 4.45644 133.054 4.64205C132.721 4.82765 132.457 5.09848 132.264 5.45455C132.071 5.81061 131.974 6.24242 131.974 6.75Z" fill="#323232"/>
</svg>
